<svg width="55" height="63" viewBox="0 0 55 63" fill="none" xmlns="http://www.w3.org/2000/svg">
<path d="M50.9594 39.2812C53.0031 35.4433 54.069 31.1607 54.0625 26.8125C54.0625 12.1422 42.1704 0.25 27.5 0.25C12.8297 0.25 0.937539 12.1422 0.937539 26.8125C0.926786 33.0786 3.14175 39.1448 7.18754 43.9297L7.21879 43.9688C7.22973 43.9781 7.2391 43.9906 7.24691 44H7.18754L22.95 60.7344C23.5344 61.3546 24.2393 61.8488 25.0217 62.1866C25.804 62.5244 26.6471 62.6987 27.4993 62.6987C28.3514 62.6987 29.1945 62.5244 29.9769 62.1866C30.7592 61.8488 31.4642 61.3546 32.0485 60.7344L47.8125 44H47.7532L47.7782 43.9703L47.7813 43.9672C47.8938 43.8328 48.0063 43.6984 48.1172 43.5609C49.201 42.2289 50.1534 40.7951 50.961 39.2797L50.9594 39.2812ZM27.5063 36.9688C25.0199 36.9688 22.6353 35.981 20.8772 34.2229C19.119 32.4647 18.1313 30.0802 18.1313 27.5938C18.1313 25.1073 19.119 22.7228 20.8772 20.9646C22.6353 19.2065 25.0199 18.2188 27.5063 18.2188C29.9927 18.2188 32.3773 19.2065 34.1354 20.9646C35.8936 22.7228 36.8813 25.1073 36.8813 27.5938C36.8813 30.0802 35.8936 32.4647 34.1354 34.2229C32.3773 35.981 29.9927 36.9688 27.5063 36.9688Z" fill="url(#paint0_linear)"/>
<defs>
<linearGradient id="paint0_linear" x1="42.4415" y1="7.7773" x2="7.57025" y2="57.7259" gradientUnits="userSpaceOnUse">
<stop stop-color="#C52D2E"/>
<stop offset="1" stop-color="#AD262F"/>
</linearGradient>
</defs>
</svg>
