<svg width="51" height="51" viewBox="0 0 51 51" fill="none" xmlns="http://www.w3.org/2000/svg">
<path d="M28.6059 14.4391C34.4768 14.4391 36.9809 16.9432 36.9809 22.8141H42.5643C42.5643 13.811 37.6091 8.85577 28.6059 8.85577V14.4391ZM38.159 29.6341C37.6226 29.1466 36.9177 28.8866 36.1931 28.909C35.4686 28.9314 34.7811 29.2344 34.2758 29.7542L27.5953 36.6245C25.9873 36.3174 22.7546 35.3096 19.4269 31.9903C16.0993 28.6599 15.0915 25.4187 14.7928 23.8219L21.6575 17.1386C22.1779 16.6337 22.4814 15.9461 22.5038 15.2213C22.5262 14.4966 22.2657 13.7916 21.7775 13.2554L11.4623 1.91289C10.9739 1.3751 10.2951 1.04888 9.56998 1.00353C8.84491 0.958184 8.13072 1.19727 7.5791 1.67002L1.52118 6.86531C1.03853 7.34971 0.750456 7.9944 0.711597 8.6771C0.669722 9.37502 -0.128694 25.9073 12.6906 38.7322C23.8741 49.9128 37.8826 50.7308 41.7407 50.7308C42.3046 50.7308 42.6508 50.714 42.7429 50.7084C43.4255 50.6702 44.0699 50.3809 44.5519 49.8961L49.7444 43.8354C50.2175 43.2841 50.4571 42.5701 50.4123 41.845C50.3674 41.12 50.0417 40.441 49.5043 39.9522L38.159 29.6341Z" fill="url(#paint0_linear)"/>
<defs>
<linearGradient id="paint0_linear" x1="39.5393" y1="6.99265" x2="13.562" y2="50.7291" gradientUnits="userSpaceOnUse">
<stop stop-color="#C52D2E"/>
<stop offset="1" stop-color="#AD262F"/>
</linearGradient>
</defs>
</svg>
