<svg width="70" height="15" viewBox="0 0 70 15" fill="none" xmlns="http://www.w3.org/2000/svg">
<path d="M12.4154 5.89376L8.94409 5.38926L7.39233 2.24336C7.34995 2.15723 7.28022 2.08751 7.19409 2.04512C6.97807 1.93848 6.71557 2.02735 6.60757 2.24336L5.05581 5.38926L1.58452 5.89376C1.48882 5.90743 1.40132 5.95255 1.33432 6.0209C1.25333 6.10415 1.20871 6.21614 1.21024 6.33227C1.21178 6.4484 1.25936 6.55917 1.34253 6.64024L3.85405 9.08887L3.26069 12.5465C3.24678 12.6269 3.25568 12.7096 3.28638 12.7853C3.31709 12.8609 3.36837 12.9264 3.43442 12.9744C3.50046 13.0224 3.57863 13.0509 3.66005 13.0567C3.74147 13.0625 3.82288 13.0453 3.89507 13.0072L6.99995 11.3748L10.1048 13.0072C10.1896 13.0524 10.288 13.0674 10.3824 13.051C10.6203 13.01 10.7802 12.7844 10.7392 12.5465L10.1458 9.08887L12.6574 6.64024C12.7257 6.57325 12.7708 6.48575 12.7845 6.39005C12.8214 6.15079 12.6546 5.9293 12.4154 5.89376Z" fill="#FFD600"/>
<path d="M26.4154 5.82741L22.9441 5.32292L21.3923 2.17702C21.3499 2.09089 21.2802 2.02116 21.1941 1.97878C20.9781 1.87214 20.7156 1.961 20.6076 2.17702L19.0558 5.32292L15.5845 5.82741C15.4888 5.84108 15.4013 5.8862 15.3343 5.95456C15.2533 6.0378 15.2087 6.14979 15.2102 6.26593C15.2118 6.38206 15.2594 6.49283 15.3425 6.5739L17.8541 9.02253L17.2607 12.4801C17.2468 12.5606 17.2557 12.6433 17.2864 12.7189C17.3171 12.7946 17.3684 12.8601 17.4344 12.908C17.5005 12.956 17.5786 12.9845 17.66 12.9903C17.7415 12.9961 17.8229 12.979 17.8951 12.9409L20.9999 11.3085L24.1048 12.9409C24.1896 12.986 24.288 13.001 24.3824 12.9846C24.6203 12.9436 24.7802 12.718 24.7392 12.4801L24.1458 9.02253L26.6574 6.5739C26.7257 6.5069 26.7708 6.4194 26.7845 6.3237C26.8214 6.08444 26.6546 5.86296 26.4154 5.82741Z" fill="#FFD600"/>
<path d="M40.4154 5.82741L36.9441 5.32292L35.3923 2.17702C35.3499 2.09089 35.2802 2.02116 35.1941 1.97878C34.9781 1.87214 34.7156 1.961 34.6076 2.17702L33.0558 5.32292L29.5845 5.82741C29.4888 5.84108 29.4013 5.8862 29.3343 5.95456C29.2533 6.0378 29.2087 6.14979 29.2102 6.26593C29.2118 6.38206 29.2594 6.49283 29.3425 6.5739L31.8541 9.02253L31.2607 12.4801C31.2468 12.5606 31.2557 12.6433 31.2864 12.7189C31.3171 12.7946 31.3684 12.8601 31.4344 12.908C31.5005 12.956 31.5786 12.9845 31.66 12.9903C31.7415 12.9961 31.8229 12.979 31.8951 12.9409L34.9999 11.3085L38.1048 12.9409C38.1896 12.986 38.288 13.001 38.3824 12.9846C38.6203 12.9436 38.7802 12.718 38.7392 12.4801L38.1458 9.02253L40.6574 6.5739C40.7257 6.5069 40.7708 6.4194 40.7845 6.3237C40.8214 6.08444 40.6546 5.86296 40.4154 5.82741Z" fill="#FFD600"/>
<path d="M54.4154 5.82741L50.9441 5.32292L49.3923 2.17702C49.3499 2.09089 49.2802 2.02116 49.1941 1.97878C48.9781 1.87214 48.7156 1.961 48.6076 2.17702L47.0558 5.32292L43.5845 5.82741C43.4888 5.84108 43.4013 5.8862 43.3343 5.95456C43.2533 6.0378 43.2087 6.14979 43.2102 6.26593C43.2118 6.38206 43.2594 6.49283 43.3425 6.5739L45.8541 9.02253L45.2607 12.4801C45.2468 12.5606 45.2557 12.6433 45.2864 12.7189C45.3171 12.7946 45.3684 12.8601 45.4344 12.908C45.5005 12.956 45.5786 12.9845 45.66 12.9903C45.7415 12.9961 45.8229 12.979 45.8951 12.9409L48.9999 11.3085L52.1048 12.9409C52.1896 12.986 52.288 13.001 52.3824 12.9846C52.6203 12.9436 52.7802 12.718 52.7392 12.4801L52.1458 9.02253L54.6574 6.5739C54.7257 6.5069 54.7708 6.4194 54.7845 6.3237C54.8214 6.08444 54.6546 5.86296 54.4154 5.82741Z" fill="#FFD600"/>
<path d="M68.4154 5.82741L64.9441 5.32292L63.3923 2.17702C63.3499 2.09089 63.2802 2.02116 63.1941 1.97878C62.9781 1.87214 62.7156 1.961 62.6076 2.17702L61.0558 5.32292L57.5845 5.82741C57.4888 5.84108 57.4013 5.8862 57.3343 5.95456C57.2533 6.0378 57.2087 6.14979 57.2102 6.26593C57.2118 6.38206 57.2594 6.49283 57.3425 6.5739L59.8541 9.02253L59.2607 12.4801C59.2468 12.5606 59.2557 12.6433 59.2864 12.7189C59.3171 12.7946 59.3684 12.8601 59.4344 12.908C59.5005 12.956 59.5786 12.9845 59.66 12.9903C59.7415 12.9961 59.8229 12.979 59.8951 12.9409L62.9999 11.3085L66.1048 12.9409C66.1896 12.986 66.288 13.001 66.3824 12.9846C66.6203 12.9436 66.7802 12.718 66.7392 12.4801L66.1458 9.02253L68.6574 6.5739C68.7257 6.5069 68.7708 6.4194 68.7845 6.3237C68.8214 6.08444 68.6546 5.86296 68.4154 5.82741Z" fill="#FFD600"/>
</svg>
