<svg width="61" height="61" viewBox="0 0 61 61" fill="none" xmlns="http://www.w3.org/2000/svg">
<path d="M30.5 0C13.6552 0 0 13.6552 0 30.5C0 47.3448 13.6552 61 30.5 61C47.3448 61 61 47.3448 61 30.5C61 13.6552 47.3448 0 30.5 0Z" fill="#40B3E0"/>
<path d="M45.3409 17.5446L39.8931 45.0111C39.8931 45.0111 39.1313 46.9159 37.0361 46.0016L24.4648 36.3636L19.8936 34.1543L12.1986 31.5637C12.1986 31.5637 11.0177 31.1448 10.9033 30.2305C10.7889 29.3162 12.2367 28.8211 12.2367 28.8211L42.8263 16.8212C42.8263 16.8212 45.3406 15.7165 45.3406 17.5451" fill="white"/>
<path d="M23.4989 44.7022C23.4989 44.7022 23.1319 44.6678 22.6744 43.2201C22.2176 41.7725 19.8937 34.1537 19.8937 34.1537L38.3695 22.4207C38.3695 22.4207 39.4363 21.7731 39.3982 22.4207C39.3982 22.4207 39.5886 22.5351 39.0169 23.0684C38.4458 23.6019 24.5032 36.1348 24.5032 36.1348" fill="#D2E5F1"/>
<path d="M29.285 40.0587L24.3127 44.5922C24.3127 44.5922 23.9239 44.8872 23.4988 44.7023L24.451 36.2815" fill="#B5CFE4"/>
</svg>
