<svg width="72" height="73" viewBox="0 0 72 73" fill="none" xmlns="http://www.w3.org/2000/svg">
<g clip-path="url(#clip0)">
<path d="M19.0302 62.5216L20.2073 63.1115C25.1123 66.0605 30.6054 67.4368 36.0987 67.4368C53.3633 67.4368 67.4888 53.281 67.4888 35.9795C67.4888 27.722 64.1534 19.661 58.268 13.7627C52.3823 7.86431 44.5345 4.52209 36.0987 4.52209C18.8342 4.52209 4.70842 18.6779 4.90473 36.1762C4.90473 42.0742 6.67042 47.7761 9.61314 52.6911L10.3978 53.8709L7.25908 65.4709L19.0302 62.5216Z" fill="#00E676"/>
<path d="M61.603 10.6168C54.9326 3.73568 45.7118 0 36.2948 0C16.2838 0 0.196312 16.3185 0.392344 36.1759C0.392344 42.4674 2.15803 48.5625 5.10103 54.0673L0 72.7452L19.0302 67.83C24.3273 70.7793 30.2127 72.1556 36.0987 72.1556C55.9136 72.1556 72.0011 55.8368 72.0011 35.9797C72.0011 26.3457 68.2734 17.3016 61.6033 10.6168H61.603ZM36.2948 66.0608C30.9977 66.0608 25.7006 64.6848 21.1882 61.9322L20.0112 61.3423L8.63241 64.2913L11.5751 53.0848L10.7904 51.905C2.15803 37.9459 6.27806 19.4642 20.4036 10.8133C34.5291 2.16266 52.7746 6.29153 61.407 20.4473C70.0391 34.6031 65.9191 52.8878 51.7939 61.5387C47.2812 64.4877 41.7881 66.0605 36.2948 66.0605V66.0608ZM53.5593 44.2374L51.4012 43.2543C51.4012 43.2543 48.2625 41.878 46.3005 40.8949C46.1042 40.8949 45.9082 40.6982 45.7118 40.6982C45.1232 40.6982 44.7308 40.8949 44.3385 41.0917C44.3385 41.0917 44.1425 41.2881 41.3958 44.4339C41.1995 44.8271 40.8071 45.0238 40.4148 45.0238H40.2185C40.0224 45.0238 39.6301 44.8271 39.4338 44.6306L38.4528 44.2374C36.2947 43.2543 34.333 42.0745 32.7634 40.5017C32.371 40.1086 31.7824 39.7154 31.39 39.3222C30.0167 37.9459 28.6433 36.3729 27.6626 34.6034L27.4663 34.2102C27.2703 34.0135 27.2703 33.817 27.074 33.4239C27.074 33.0307 27.074 32.6375 27.2703 32.4407C27.2703 32.4407 28.055 31.4576 28.6433 30.868C29.036 30.4745 29.232 29.8849 29.6243 29.4917C30.0167 28.9018 30.213 28.1154 30.0167 27.5255C29.8207 26.5424 27.4663 21.234 26.8779 20.0544C26.4853 19.4645 26.0933 19.2681 25.5046 19.0713H23.3466C22.9539 19.0713 22.5619 19.2681 22.1692 19.2681L21.9729 19.4645C21.5806 19.6612 21.1882 20.0544 20.7959 20.2509C20.4036 20.6443 20.2073 21.0372 19.8149 21.4307C18.4416 23.2002 17.6569 25.3628 17.6569 27.5255C17.6569 29.0982 18.0492 30.6713 18.6379 32.0476L18.8342 32.6375C20.5999 36.3729 22.9539 39.7154 26.0933 42.6644L26.8779 43.4508C27.4663 44.0407 28.055 44.4339 28.4473 45.0235C32.5673 48.5628 37.2757 51.1186 42.5728 52.4949C43.1615 52.6913 43.9462 52.6913 44.5348 52.8881H46.4965C47.4775 52.8881 48.6546 52.4949 49.4395 52.1017C50.0279 51.7085 50.4203 51.7085 50.8126 51.3153L51.2052 50.9219C51.5976 50.5287 51.9899 50.3322 52.3823 49.939C52.7746 49.5459 53.1669 49.1527 53.3632 48.7592C53.7556 47.9728 53.9516 46.9897 54.1479 46.0069V44.6306C54.1479 44.6306 53.9516 44.4339 53.5593 44.2374Z" fill="white"/>
</g>
<defs>
<clipPath id="clip0">
<rect width="72" height="73" fill="white"/>
</clipPath>
</defs>
</svg>
