<svg width="124" height="121" viewBox="0 0 124 121" fill="none" xmlns="http://www.w3.org/2000/svg">
<path fill-rule="evenodd" clip-rule="evenodd" d="M35 119.008C43.5796 119.008 51.2579 114.735 56.3941 108.008H71.3305C76.7328 115.316 85.1034 120.008 94.5 120.008C110.792 120.008 124 105.905 124 88.5076C124 72.4435 112.739 59.1879 98.1858 57.2511C97.8221 57.0944 97.4212 57.0076 97 57.0076H94.5H68C66.3431 57.0076 65 58.3507 65 60.0076V61.0076C65 62.6644 66.3431 64.0076 68 64.0076H52.7239C47.8966 59.6326 41.7252 57.0076 35 57.0076C19.536 57.0076 7 70.8867 7 88.0076C7 105.128 19.536 119.008 35 119.008Z" fill="black" fill-opacity="0.11"/>
<path fill-rule="evenodd" clip-rule="evenodd" d="M49.3941 102.008C44.2579 108.735 36.5796 113.008 28 113.008C12.536 113.008 0 99.1284 0 82.0076C0 64.8867 12.536 51.0076 28 51.0076C28.4999 51.0076 28.9967 51.0221 29.4901 51.0507C29.6559 51.0223 29.8262 51.0076 30 51.0076H45C46.6569 51.0076 48 52.3507 48 54.0076V55.0076C48 56.4424 46.9926 57.642 45.6466 57.9377L45.7239 58.0076H61C59.3431 58.0076 58 56.6644 58 55.0076V54.0076C58 52.3507 59.3431 51.0076 61 51.0076H87.5H90C90.4212 51.0076 90.8221 51.0944 91.1858 51.2511C105.739 53.1879 117 66.4435 117 82.5076C117 99.9045 103.792 114.008 87.5 114.008C78.1034 114.008 69.7328 109.316 64.3305 102.008H49.3941Z" fill="white"/>
<path d="M113.5 82.5076C113.5 98.1914 101.647 110.508 87.5 110.508C73.3533 110.508 61.5 98.1914 61.5 82.5076C61.5 66.8238 73.3533 54.5076 87.5 54.5076C101.647 54.5076 113.5 66.8238 113.5 82.5076Z" stroke="#FF9393" stroke-width="7"/>
<path d="M52.5 82.0076C52.5 97.5391 41.2043 109.508 28 109.508C14.7957 109.508 3.5 97.5391 3.5 82.0076C3.5 66.4761 14.7957 54.5076 28 54.5076C41.2043 54.5076 52.5 66.4761 52.5 82.0076Z" stroke="#FF9393" stroke-width="7"/>
<rect x="23" y="58.0076" width="69" height="39" rx="5" fill="white"/>
<rect x="43" y="96.0076" width="28" height="6" rx="3" fill="#FF9393"/>
<rect x="26" y="51.0076" width="23" height="7" rx="3.5" fill="#FF9393"/>
<rect x="58" y="51.0076" width="33" height="7" rx="3.5" fill="#FF9393"/>
<rect x="22" y="79.0076" width="15" height="5" fill="#CB2B2B"/>
<rect x="27" y="89.0076" width="15" height="5" transform="rotate(-90 27 89.0076)" fill="#CB2B2B"/>
<path d="M66.5 54.5076C64 54.0076 59.4 55.6076 59 52.0076C58.5 47.5076 58 35.5076 48 34.5076C38.0496 33.5125 18.0002 37.5076 17.0002 24.0076C16.0002 10.5076 36.5 13.5076 40 13.5076C43.5 13.5076 88.5 18.0076 89 4.00757" stroke="#FF9393" stroke-width="7" stroke-linecap="round"/>
<path fill-rule="evenodd" clip-rule="evenodd" d="M9.9997 101.008C18.5793 101.008 26.2576 96.7354 31.3938 90.0076H46.3302C51.7325 97.3164 60.1031 102.008 69.4997 102.008C85.7921 102.008 98.9997 87.9046 98.9997 70.5076C98.9997 63.1523 96.6388 56.3857 92.682 51.0249C106.508 53.6359 117.01 66.5296 117.01 82.0423C117.01 99.4393 103.802 113.542 87.5097 113.542C78.113 113.542 69.7425 108.851 64.3402 101.542H49.4037C44.2676 108.27 36.5892 112.542 28.0097 112.542C19.074 112.542 11.1159 107.908 5.98926 100.692C7.29899 100.9 8.63799 101.008 9.9997 101.008Z" fill="#CB2B2B" fill-opacity="0.19"/>
<circle cx="95" cy="82.0076" r="3" fill="#CB2B2B"/>
<circle cx="87" cy="74.0076" r="3" fill="#CB2B2B"/>
<circle cx="79" cy="82.0076" r="3" fill="#CB2B2B"/>
<circle cx="87" cy="89.0076" r="3" fill="#CB2B2B"/>
<rect x="51" y="86.0076" width="4" height="4" rx="2" fill="#CB2B2B"/>
<rect x="58" y="86.0076" width="4" height="4" rx="2" fill="#CB2B2B"/>
</svg>
