<svg width="123" height="122" viewBox="0 0 123 122" fill="none" xmlns="http://www.w3.org/2000/svg">
<circle cx="68.5" cy="67.5" r="54.5" fill="black" fill-opacity="0.11"/>
<circle cx="60.5" cy="54.5" r="50.5" fill="white" stroke="#FFB6B6" stroke-width="8"/>
<path d="M47.5374 91.8328C49.1374 95.4328 48.2041 97.3328 47.5374 97.8328C25.5374 80.2328 23.7041 59.4994 25.5374 51.3328C29.3708 52.6661 37.4374 56.2328 39.0374 59.8328C41.0374 64.3328 36.5374 63.8328 37.0374 66.3328C37.5374 68.8328 45.0374 75.3328 45.0374 76.3328C45.0374 77.3328 45.5374 87.3328 47.5374 91.8328Z" fill="url(#paint0_linear)"/>
<path d="M44.0371 54.3328C41.2369 53.1328 39.5372 54.8328 39.0374 55.8328C38.3708 55.9994 36.9374 55.8328 36.5371 53.8328C36.0368 51.3328 34.0371 49.3328 30.0371 48.3328C26.0371 47.3328 28.0371 42.3328 33.5371 41.8328C39.0371 41.3328 43.0371 38.3328 46.5371 33.8328C50.0371 29.3328 55.0371 28.3328 58.5371 28.3328C62.0371 28.3328 60.0371 23.8328 55.0371 20.8328C50.0371 17.8328 54.0371 22.8328 49.0371 25.8328C44.0371 28.8328 42.0371 19.8328 46.5371 19.3328C51.0371 18.8328 49.0371 16.3328 53.0371 15.8328C57.0371 15.3328 60.5371 16.3328 60.5371 14.8328C60.5371 13.6328 53.2038 12.3327 49.5371 11.8327C77.5371 -1.6673 94.5 23 94 23C93.5 23 86.0371 24.3328 84.5371 24.8328C83.0371 25.3328 87.0371 27.3328 86.0371 30.8328C85.0371 34.3328 82.0371 32.3328 81.5371 33.8328C81.0371 35.3328 85.5371 38.8328 82.0371 39.8328C78.5371 40.8328 77.5371 43.8328 76.0371 46.3328C74.5371 48.8328 73.5371 51.3328 74.5371 55.8328C75.5371 60.3328 84.0371 57.8328 91.0371 59.8328C98.0371 61.8328 94.5371 68.8328 95.0371 73.8328C95.5371 78.8328 98 82.5 93.5 87.5C89 92.5 79 98 72.5 99.5C66 101 53.5371 100.833 53.0371 96.8328C52.5371 92.8328 57.5371 89.3328 59.0371 86.8328C60.5371 84.3328 61.0371 80.3328 63.0371 79.8328C65.0371 79.3328 65.0371 72.8328 67.5371 68.8328C70.0371 64.8328 59.5371 63.8328 59.0371 61.3328C58.5371 58.8328 56.0371 58.3328 52.0371 56.8328C48.0371 55.3328 47.5374 55.8328 44.0371 54.3328Z" fill="url(#paint1_linear)"/>
<path d="M99.0371 40.3328C100.637 39.9328 103.667 42.5 105.5 43.5C103.5 35.5 103.037 35.8328 101.037 33.8328C99.0371 31.8328 94.0371 29.8328 96.0371 31.3328C98.0371 32.8328 96.5371 34.3328 93.0371 32.8328C89.5371 31.3328 84.0371 36.3328 87.5371 37.3328C91.0371 38.3328 97.0371 40.8328 99.0371 40.3328Z" fill="url(#paint2_linear)"/>
<g filter="url(#filter0_d)">
<rect x="9" y="38" width="103" height="34" rx="2" fill="white"/>
<rect x="6.5" y="35.5" width="108" height="39" rx="4.5" stroke="#FFB6B6" stroke-width="5"/>
</g>
<path d="M50.93 49.878L47.168 62H44.528L42.086 53.046L39.644 62H37.004L33.22 49.878H35.772L38.302 59.624L40.876 49.878H43.494L45.958 59.58L48.466 49.878H50.93ZM69.0843 49.878L65.3223 62H62.6823L60.2403 53.046L57.7983 62H55.1583L51.3743 49.878H53.9263L56.4563 59.624L59.0303 49.878H61.6483L64.1123 59.58L66.6203 49.878H69.0843ZM87.2386 49.878L83.4766 62H80.8366L78.3946 53.046L75.9526 62H73.3126L69.5286 49.878H72.0806L74.6106 59.624L77.1846 49.878H79.8026L82.2666 59.58L84.7746 49.878H87.2386Z" fill="#CB2B2B"/>
<path fill-rule="evenodd" clip-rule="evenodd" d="M48 107.56C72.0749 101.91 90 80.2983 90 54.5C90 28.7017 72.0749 7.09006 48 1.44024C52.0139 0.498271 56.1988 0 60.5 0C90.5995 0 115 24.4005 115 54.5C115 84.5995 90.5995 109 60.5 109C56.1988 109 52.0139 108.502 48 107.56Z" fill="#CB2B2B" fill-opacity="0.17"/>
<defs>
<filter id="filter0_d" x="0" y="33" width="121" height="52" filterUnits="userSpaceOnUse" color-interpolation-filters="sRGB">
<feFlood flood-opacity="0" result="BackgroundImageFix"/>
<feColorMatrix in="SourceAlpha" type="matrix" values="0 0 0 0 0 0 0 0 0 0 0 0 0 0 0 0 0 0 127 0"/>
<feOffset dy="4"/>
<feGaussianBlur stdDeviation="2"/>
<feColorMatrix type="matrix" values="0 0 0 0 0 0 0 0 0 0 0 0 0 0 0 0 0 0 0.07 0"/>
<feBlend mode="normal" in2="BackgroundImageFix" result="effect1_dropShadow"/>
<feBlend mode="normal" in="SourceGraphic" in2="effect1_dropShadow" result="shape"/>
</filter>
<linearGradient id="paint0_linear" x1="87.8906" y1="18.9524" x2="36.5953" y2="94.0541" gradientUnits="userSpaceOnUse">
<stop stop-color="#C52D2E"/>
<stop offset="1" stop-color="#AD262F"/>
</linearGradient>
<linearGradient id="paint1_linear" x1="87.8906" y1="18.9524" x2="36.5953" y2="94.0541" gradientUnits="userSpaceOnUse">
<stop stop-color="#C52D2E"/>
<stop offset="1" stop-color="#AD262F"/>
</linearGradient>
<linearGradient id="paint2_linear" x1="87.8906" y1="18.9524" x2="36.5953" y2="94.0541" gradientUnits="userSpaceOnUse">
<stop stop-color="#C52D2E"/>
<stop offset="1" stop-color="#AD262F"/>
</linearGradient>
</defs>
</svg>
